<svg xmlns="http://www.w3.org/2000/svg" viewBox="0 0 192 192" fill="none">
  <rect width="192" height="192" rx="40" fill="#6366f1"/>
  <!-- Two people -->
  <circle cx="72" cy="70" r="20" fill="white" fill-opacity="0.95"/>
  <path d="M36 130c0-19.882 16.118-36 36-36s36 16.118 36 36" stroke="white" stroke-width="10" stroke-linecap="round" fill="none" opacity="0.95"/>
  <circle cx="128" cy="70" r="16" fill="white" fill-opacity="0.7"/>
  <path d="M100 130c0-15.464 12.536-28 28-28s28 12.536 28 28" stroke="white" stroke-width="10" stroke-linecap="round" fill="none" opacity="0.7"/>
  <!-- Calendar dot accent -->
  <circle cx="148" cy="44" r="14" fill="#f59e0b"/>
  <rect x="144" y="36" width="2" height="4" rx="1" fill="white"/>
  <rect x="150" y="36" width="2" height="4" rx="1" fill="white"/>
  <rect x="141" y="42" width="16" height="1.5" rx="0.75" fill="white"/>
  <rect x="143" y="47" width="3" height="3" rx="0.5" fill="white"/>
  <rect x="148.5" y="47" width="3" height="3" rx="0.5" fill="white"/>
</svg>
